{"title":"The African Queen(1951)","uid":12341432,"size":1078624168,"categoryP":"video","categoryS":"movies","magnet":"?xt=urn:btih:b09f6baceadd53510b1fab9aa7a7070fca1fc176&amp;dn=The+African+Queen%281951%29&amp;tr=udp%3A%2F%2Ftracker.openbittorrent.com%3A80&amp;tr=udp%3A%2F%2Fopen.demonii.com%3A1337&amp;tr=udp%3A%2F%2Ftracker.coppersurfer.tk%3A6969&amp;tr=udp%3A%2F%2Fexodus.desync.com%3A6969","seeders":0,"leechers":0,"uploader":"dascuba","files":1,"time":1441304530,"description":" The African Queen (1951)\nPG  |  105 min  |  Adventure, Romance, War  |  20 February 1952 (USA)\n7.9 Your rating:   -/10   Ratings: 7.9/10 from 55,367 users   \nReviews: 204 user | 106 critic\nIn Africa during WWI, a gin-swilling riverboat captain is persuaded by a strait-laced missionary to use his boat to attack an enemy warship.\n\nDirector: John Huston\nWriters: C.S. Forester (novel), James Agee (adapted for the screen by), 3 more credits Â»\nStars: Humphrey Bogart, Katharine Hepburn, Robert Morley \n\nGeneral\nComplete name                        : C:AFRICAN QUEENAFRICAN_QUEEN_Title13.mp4\nFormat                                   : MPEG-4\nFormat profile                           : Base Media\nCodec ID                                 : isom\nFile size                                : 1.00 GiB\nDuration                                 : 1h 45mn\nOverall bit rate                         : 1 367 Kbps\nMovie name                               : AFRICAN_QUEEN\nGenre                                    : Romance_adventure\nWriting application                      : Lavf54.6.100\n\nVideo\nID                                       : 1\nFormat                                   : AVC\nFormat/Info                              : Advanced Video Codec\nFormat profile                           : Baseline@L3\nFormat settings, CABAC                   : No\nFormat settings, ReFrames                : 6 frames\nCodec ID                                 : avc1\nCodec ID/Info                            : Advanced Video Coding\nDuration                                 : 1h 45mn\nBit rate                                 : 1 227 Kbps\nWidth                                    : 720 pixels\nHeight                                   : 540 pixels\nDisplay aspect ratio                     : 4:3\nFrame rate mode                          : Constant\nFrame rate                               : 29.970 fps\nColor space                              : YUV\nChroma subsampling                       : 4:2:0\nBit depth                                : 8 bits\nScan type                                : Progressive\nBits/(Pixel*Frame)                       : 0.105\nStream size                              : 923 MiB (90%)\n\nAudio\nID                                       : 2\nFormat                                   : AAC\nFormat/Info                              : Advanced Audio Codec\nFormat profile                           : LC\nCodec ID                                 : 40\nDuration                                 : 1h 45mn\nBit rate mode                            : Constant\nBit rate                                 : 132 Kbps\nChannel(s)                               : 2 channels\nChannel positions                        : Front: L R\nSampling rate                            : 44.1 KHz\nCompression mode                         : Lossy\nStream size                              : 100 MiB (10%)","torrent":{"xt":"urn:btih:b09f6baceadd53510b1fab9aa7a7070fca1fc176","amp;dn":"The+African+Queen%281951%29","amp;tr":["udp%3A%2F%2Ftracker.openbittorrent.com%3A80","udp%3A%2F%2Fopen.demonii.com%3A1337","udp%3A%2F%2Ftracker.coppersurfer.tk%3A6969","udp%3A%2F%2Fexodus.desync.com%3A6969"],"infoHash":"b09f6baceadd53510b1fab9aa7a7070fca1fc176","infoHashBuffer":{"type":"Buffer","data":[176,159,107,172,234,221,83,81,11,31,171,154,167,167,7,15,202,31,193,118]},"announce":[],"urlList":[]}}